<svg width="126" height="48" viewBox="0 0 126 48" fill="none" xmlns="http://www.w3.org/2000/svg">
<path d="M35.3767 17.8241H37.4761L40.5673 26.6597L43.6585 17.8241H45.7579L41.4104 29.8583H39.7243L35.3767 17.8241ZM34.2444 17.8241H36.3355L36.7157 26.4365V29.8583H34.2444V17.8241ZM44.7991 17.8241H46.8985V29.8583H44.4189V26.4365L44.7991 17.8241ZM48.5433 25.4777V25.3041C48.5433 24.6484 48.637 24.0451 48.8243 23.4941C49.0117 22.9375 49.2844 22.4554 49.6426 22.0476C50.0007 21.6399 50.4416 21.323 50.965 21.0971C51.4885 20.8657 52.0891 20.75 52.7669 20.75C53.4446 20.75 54.048 20.8657 54.5769 21.0971C55.1059 21.323 55.5495 21.6399 55.9077 22.0476C56.2713 22.4554 56.5468 22.9375 56.7342 23.4941C56.9215 24.0451 57.0152 24.6484 57.0152 25.3041V25.4777C57.0152 26.1279 56.9215 26.7313 56.7342 27.2878C56.5468 27.8388 56.2713 28.321 55.9077 28.7342C55.5495 29.142 55.1087 29.4588 54.5852 29.6847C54.0617 29.9107 53.4611 30.0236 52.7834 30.0236C52.1056 30.0236 51.5023 29.9107 50.9733 29.6847C50.4498 29.4588 50.0063 29.142 49.6426 28.7342C49.2844 28.321 49.0117 27.8388 48.8243 27.2878C48.637 26.7313 48.5433 26.1279 48.5433 25.4777ZM50.9237 25.3041V25.4777C50.9237 25.8524 50.9568 26.2023 51.0229 26.5274C51.089 26.8525 51.1937 27.139 51.337 27.387C51.4857 27.6294 51.6786 27.8195 51.9155 27.9573C52.1525 28.0951 52.4418 28.1639 52.7834 28.1639C53.114 28.1639 53.3978 28.0951 53.6347 27.9573C53.8716 27.8195 54.0617 27.6294 54.205 27.387C54.3483 27.139 54.453 26.8525 54.5191 26.5274C54.5907 26.2023 54.6265 25.8524 54.6265 25.4777V25.3041C54.6265 24.9405 54.5907 24.5988 54.5191 24.2793C54.453 23.9542 54.3455 23.6676 54.1967 23.4197C54.0535 23.1662 53.8634 22.9678 53.6264 22.8246C53.3895 22.6813 53.103 22.6097 52.7669 22.6097C52.4307 22.6097 52.1442 22.6813 51.9073 22.8246C51.6758 22.9678 51.4857 23.1662 51.337 23.4197C51.1937 23.6676 51.089 23.9542 51.0229 24.2793C50.9568 24.5988 50.9237 24.9405 50.9237 25.3041ZM58.4781 17.1629H60.8585V27.8085L60.6188 29.8583H58.4781V17.1629ZM66.5202 25.2959V25.4695C66.5202 26.1362 66.4486 26.7478 66.3053 27.3043C66.1676 27.8609 65.9527 28.343 65.6607 28.7508C65.3686 29.153 65.0049 29.4671 64.5696 29.693C64.1398 29.9134 63.6329 30.0236 63.0488 30.0236C62.5033 30.0236 62.0295 29.9134 61.6272 29.693C61.2305 29.4726 60.8971 29.1613 60.6271 28.759C60.3571 28.3568 60.1395 27.8857 59.9742 27.3457C59.8089 26.8057 59.6849 26.2161 59.6022 25.5769V25.1967C59.6849 24.5575 59.8089 23.9679 59.9742 23.4279C60.1395 22.8879 60.3571 22.4168 60.6271 22.0146C60.8971 21.6123 61.2305 21.301 61.6272 21.0806C62.0239 20.8602 62.4923 20.75 63.0323 20.75C63.6219 20.75 64.1343 20.8629 64.5696 21.0889C65.0105 21.3093 65.3741 21.6234 65.6607 22.0311C65.9527 22.4333 66.1676 22.9127 66.3053 23.4693C66.4486 24.0203 66.5202 24.6292 66.5202 25.2959ZM64.1398 25.4695V25.2959C64.1398 24.9322 64.1123 24.5906 64.0572 24.271C64.0076 23.9459 63.9194 23.6621 63.7927 23.4197C63.666 23.1717 63.4924 22.9761 63.272 22.8328C63.0571 22.6896 62.7788 22.6179 62.4372 22.6179C62.1121 22.6179 61.8366 22.673 61.6107 22.7832C61.3848 22.8934 61.1974 23.0477 61.0486 23.2461C60.9054 23.4445 60.7979 23.6814 60.7263 23.9569C60.6547 24.2269 60.6106 24.5245 60.5941 24.8496V25.9323C60.6106 26.3676 60.6822 26.7533 60.8089 27.0894C60.9412 27.4201 61.1396 27.6818 61.404 27.8746C61.674 28.062 62.0239 28.1557 62.4537 28.1557C62.7899 28.1557 63.0681 28.0895 63.2885 27.9573C63.5089 27.8251 63.6797 27.6377 63.801 27.3953C63.9277 27.1528 64.0159 26.869 64.0655 26.5439C64.1151 26.2133 64.1398 25.8552 64.1398 25.4695ZM70.5124 20.9153V29.8583H68.1237V20.9153H70.5124ZM67.9749 18.5845C67.9749 18.2374 68.0962 17.9508 68.3386 17.7249C68.581 17.499 68.9061 17.386 69.3139 17.386C69.7161 17.386 70.0385 17.499 70.2809 17.7249C70.5289 17.9508 70.6529 18.2374 70.6529 18.5845C70.6529 18.9316 70.5289 19.2182 70.2809 19.4441C70.0385 19.67 69.7161 19.783 69.3139 19.783C68.9061 19.783 68.581 19.67 68.3386 19.4441C68.0962 19.2182 67.9749 18.9316 67.9749 18.5845ZM82.1664 23.5684V28.3375C81.979 28.5634 81.6898 28.8086 81.2985 29.0731C80.9073 29.3321 80.4031 29.5552 79.786 29.7426C79.1688 29.9299 78.4222 30.0236 77.5461 30.0236C76.7692 30.0236 76.0611 29.8969 75.4219 29.6434C74.7827 29.3844 74.2317 29.007 73.7689 28.5111C73.3115 28.0152 72.9589 27.409 72.7109 26.6927C72.463 25.9709 72.339 25.1471 72.339 24.2214V23.4693C72.339 22.5436 72.4575 21.7198 72.6944 20.9979C72.9368 20.2761 73.2812 19.6672 73.7276 19.1713C74.1739 18.6754 74.7056 18.298 75.3227 18.039C75.9399 17.78 76.6259 17.6505 77.3808 17.6505C78.4277 17.6505 79.2873 17.8213 79.9596 18.163C80.6318 18.4991 81.1442 18.9674 81.4969 19.5681C81.8551 20.1632 82.0755 20.8464 82.1581 21.6178H79.7529C79.6923 21.2101 79.5766 20.8547 79.4058 20.5516C79.235 20.2486 78.9898 20.0116 78.6702 19.8408C78.3561 19.67 77.9483 19.5846 77.4469 19.5846C77.0337 19.5846 76.6645 19.67 76.3394 19.8408C76.0198 20.0061 75.7498 20.2513 75.5294 20.5764C75.309 20.9015 75.1409 21.3038 75.0252 21.7831C74.9095 22.2625 74.8516 22.8191 74.8516 23.4527V24.2214C74.8516 24.8496 74.9122 25.4061 75.0335 25.891C75.1547 26.3704 75.3338 26.7754 75.5707 27.106C75.8132 27.4311 76.1107 27.6763 76.4634 27.8416C76.816 28.0069 77.2265 28.0895 77.6949 28.0895C78.0861 28.0895 78.4112 28.0565 78.6702 27.9904C78.9347 27.9242 79.1468 27.8443 79.3066 27.7507C79.4719 27.6515 79.5986 27.5578 79.6868 27.4696V25.3372H77.4221V23.5684H82.1664ZM88.8447 27.8416V23.8577C88.8447 23.5712 88.7979 23.326 88.7042 23.1221C88.6105 22.9127 88.4645 22.7502 88.2661 22.6345C88.0733 22.5188 87.8226 22.4609 87.514 22.4609C87.2495 22.4609 87.0208 22.5077 86.828 22.6014C86.6351 22.6896 86.4864 22.8191 86.3817 22.9899C86.277 23.1552 86.2246 23.3508 86.2246 23.5767H83.8442C83.8442 23.1965 83.9324 22.8356 84.1087 22.494C84.285 22.1523 84.5413 21.852 84.8774 21.593C85.2135 21.3286 85.613 21.1219 86.0758 20.9732C86.5442 20.8244 87.0677 20.75 87.6462 20.75C88.3405 20.75 88.9577 20.8657 89.4977 21.0971C90.0377 21.3286 90.4619 21.6757 90.7705 22.1386C91.0846 22.6014 91.2416 23.18 91.2416 23.8743V27.7011C91.2416 28.1915 91.2719 28.5937 91.3326 28.9078C91.3932 29.2164 91.4813 29.4864 91.597 29.7178V29.8583H89.1919C89.0761 29.6159 88.988 29.3128 88.9274 28.9491C88.8723 28.5799 88.8447 28.2108 88.8447 27.8416ZM89.1588 24.4115L89.1753 25.7587H87.8446C87.5305 25.7587 87.2578 25.7946 87.0264 25.8662C86.7949 25.9378 86.6048 26.0398 86.4561 26.172C86.3073 26.2987 86.1971 26.4475 86.1254 26.6183C86.0593 26.7891 86.0263 26.9765 86.0263 27.1804C86.0263 27.3842 86.0731 27.5688 86.1668 27.7341C86.2604 27.8939 86.3954 28.0207 86.5718 28.1143C86.7481 28.2025 86.9547 28.2466 87.1917 28.2466C87.5498 28.2466 87.8611 28.1749 88.1256 28.0317C88.3901 27.8884 88.594 27.7121 88.7373 27.5027C88.886 27.2933 88.9632 27.095 88.9687 26.9076L89.5968 27.916C89.5087 28.1419 89.3875 28.3761 89.2332 28.6185C89.0844 28.861 88.8943 29.0896 88.6629 29.3045C88.4314 29.5139 88.1532 29.6875 87.8281 29.8252C87.503 29.9575 87.1173 30.0236 86.6709 30.0236C86.1034 30.0236 85.5882 29.9107 85.1253 29.6847C84.668 29.4533 84.3043 29.1365 84.0343 28.7342C83.7698 28.3265 83.6376 27.8636 83.6376 27.3457C83.6376 26.8773 83.7258 26.4613 83.9021 26.0976C84.0784 25.7339 84.3374 25.4281 84.679 25.1802C85.0262 24.9267 85.4587 24.7366 85.9767 24.6099C86.4946 24.4776 87.0952 24.4115 87.7785 24.4115H89.1588ZM95.4569 22.8659V29.8583H93.0765V20.9153H95.3164L95.4569 22.8659ZM98.1514 20.8574L98.1101 23.0643C97.9944 23.0477 97.8538 23.034 97.6885 23.0229C97.5287 23.0064 97.3827 22.9981 97.2505 22.9981C96.9144 22.9981 96.6223 23.0422 96.3744 23.1304C96.1319 23.213 95.928 23.337 95.7627 23.5023C95.6029 23.6676 95.4817 23.8687 95.3991 24.1057C95.3219 24.3426 95.2778 24.6126 95.2668 24.9157L94.7874 24.7669C94.7874 24.1883 94.8453 23.6566 94.961 23.1717C95.0767 22.6813 95.2448 22.2543 95.4652 21.8906C95.6911 21.5269 95.9666 21.2459 96.2917 21.0475C96.6168 20.8492 96.9887 20.75 97.4075 20.75C97.5398 20.75 97.6748 20.761 97.8125 20.7831C97.9503 20.7996 98.0632 20.8244 98.1514 20.8574ZM103.821 27.8416V23.8577C103.821 23.5712 103.775 23.326 103.681 23.1221C103.587 22.9127 103.441 22.7502 103.243 22.6345C103.05 22.5188 102.799 22.4609 102.491 22.4609C102.226 22.4609 101.997 22.5077 101.805 22.6014C101.612 22.6896 101.463 22.8191 101.358 22.9899C101.254 23.1552 101.201 23.3508 101.201 23.5767H98.8209C98.8209 23.1965 98.909 22.8356 99.0854 22.494C99.2617 22.1523 99.5179 21.852 99.854 21.593C100.19 21.3286 100.59 21.1219 101.052 20.9732C101.521 20.8244 102.044 20.75 102.623 20.75C103.317 20.75 103.934 20.8657 104.474 21.0971C105.014 21.3286 105.439 21.6757 105.747 22.1386C106.061 22.6014 106.218 23.18 106.218 23.8743V27.7011C106.218 28.1915 106.249 28.5937 106.309 28.9078C106.37 29.2164 106.458 29.4864 106.574 29.7178V29.8583H104.169C104.053 29.6159 103.965 29.3128 103.904 28.9491C103.849 28.5799 103.821 28.2108 103.821 27.8416ZM104.135 24.4115L104.152 25.7587H102.821C102.507 25.7587 102.234 25.7946 102.003 25.8662C101.772 25.9378 101.581 26.0398 101.433 26.172C101.284 26.2987 101.174 26.4475 101.102 26.6183C101.036 26.7891 101.003 26.9765 101.003 27.1804C101.003 27.3842 101.05 27.5688 101.143 27.7341C101.237 27.8939 101.372 28.0207 101.548 28.1143C101.725 28.2025 101.931 28.2466 102.168 28.2466C102.526 28.2466 102.838 28.1749 103.102 28.0317C103.367 27.8884 103.571 27.7121 103.714 27.5027C103.863 27.2933 103.94 27.095 103.945 26.9076L104.574 27.916C104.485 28.1419 104.364 28.3761 104.21 28.6185C104.061 28.861 103.871 29.0896 103.64 29.3045C103.408 29.5139 103.13 29.6875 102.805 29.8252C102.48 29.9575 102.094 30.0236 101.648 30.0236C101.08 30.0236 100.565 29.9107 100.102 29.6847C99.6447 29.4533 99.281 29.1365 99.011 28.7342C98.7465 28.3265 98.6142 27.8636 98.6142 27.3457C98.6142 26.8773 98.7024 26.4613 98.8787 26.0976C99.0551 25.7339 99.314 25.4281 99.6557 25.1802C100.003 24.9267 100.435 24.7366 100.953 24.6099C101.471 24.4776 102.072 24.4115 102.755 24.4115H104.135ZM113.715 20.9153H115.872V29.5608C115.872 30.3763 115.69 31.0678 115.327 31.6353C114.968 32.2084 114.467 32.6409 113.822 32.933C113.178 33.2305 112.428 33.3793 111.574 33.3793C111.199 33.3793 110.803 33.3297 110.384 33.2305C109.971 33.1313 109.574 32.9771 109.194 32.7677C108.819 32.5583 108.505 32.2938 108.252 31.9742L109.301 30.5691C109.577 30.8887 109.896 31.1367 110.26 31.313C110.624 31.4948 111.026 31.5857 111.467 31.5857C111.897 31.5857 112.26 31.5058 112.558 31.3461C112.855 31.1918 113.084 30.9631 113.244 30.66C113.404 30.3625 113.483 30.0016 113.483 29.5773V22.9816L113.715 20.9153ZM107.698 25.4942V25.3207C107.698 24.6374 107.78 24.0175 107.946 23.461C108.117 22.899 108.356 22.4168 108.665 22.0146C108.979 21.6123 109.359 21.301 109.805 21.0806C110.252 20.8602 110.756 20.75 111.318 20.75C111.913 20.75 112.412 20.8602 112.814 21.0806C113.216 21.301 113.547 21.6151 113.806 22.0228C114.065 22.4251 114.266 22.9017 114.409 23.4527C114.558 23.9982 114.674 24.5961 114.756 25.2463V25.6265C114.674 26.2491 114.55 26.8277 114.384 27.3622C114.219 27.8967 114.001 28.365 113.731 28.7673C113.461 29.164 113.125 29.4726 112.723 29.693C112.326 29.9134 111.852 30.0236 111.301 30.0236C110.75 30.0236 110.252 29.9107 109.805 29.6847C109.365 29.4588 108.987 29.142 108.673 28.7342C108.359 28.3265 108.117 27.8471 107.946 27.2961C107.78 26.7451 107.698 26.1445 107.698 25.4942ZM110.078 25.3207V25.4942C110.078 25.8634 110.114 26.2078 110.186 26.5274C110.257 26.847 110.367 27.1308 110.516 27.3787C110.671 27.6212 110.861 27.8113 111.087 27.949C111.318 28.0813 111.591 28.1474 111.905 28.1474C112.34 28.1474 112.695 28.0565 112.971 27.8746C113.247 27.6873 113.453 27.4311 113.591 27.106C113.729 26.7809 113.809 26.4062 113.831 25.9819V24.8992C113.82 24.552 113.773 24.2407 113.69 23.9652C113.607 23.6842 113.492 23.4445 113.343 23.2461C113.194 23.0477 113.001 22.8934 112.764 22.7832C112.527 22.673 112.246 22.6179 111.921 22.6179C111.607 22.6179 111.334 22.6896 111.103 22.8328C110.877 22.9706 110.687 23.1607 110.533 23.4031C110.384 23.6456 110.271 23.9321 110.194 24.2627C110.117 24.5878 110.078 24.9405 110.078 25.3207ZM121.84 30.0236C121.145 30.0236 120.523 29.9134 119.972 29.693C119.421 29.4671 118.952 29.1558 118.567 28.759C118.186 28.3623 117.894 27.9022 117.69 27.3787C117.487 26.8498 117.385 26.2877 117.385 25.6926V25.362C117.385 24.6843 117.481 24.0644 117.674 23.5023C117.867 22.9403 118.142 22.4526 118.5 22.0394C118.864 21.6261 119.305 21.3093 119.823 21.0889C120.341 20.8629 120.925 20.75 121.575 20.75C122.209 20.75 122.771 20.8547 123.261 21.0641C123.752 21.2735 124.162 21.571 124.493 21.9567C124.829 22.3424 125.082 22.8053 125.253 23.3453C125.424 23.8798 125.509 24.4749 125.509 25.1306V26.1224H118.401V24.5355H123.17V24.3536C123.17 24.023 123.11 23.7282 122.989 23.4693C122.873 23.2048 122.696 22.9954 122.46 22.8411C122.223 22.6868 121.92 22.6097 121.55 22.6097C121.236 22.6097 120.966 22.6786 120.74 22.8163C120.514 22.9541 120.33 23.1469 120.187 23.3949C120.049 23.6428 119.944 23.9349 119.872 24.271C119.806 24.6016 119.773 24.9653 119.773 25.362V25.6926C119.773 26.0508 119.823 26.3814 119.922 26.6844C120.027 26.9875 120.173 27.2492 120.36 27.4696C120.553 27.6901 120.784 27.8609 121.054 27.9821C121.33 28.1033 121.641 28.1639 121.988 28.1639C122.418 28.1639 122.818 28.0813 123.187 27.916C123.562 27.7452 123.884 27.4889 124.154 27.1473L125.311 28.4036C125.124 28.6736 124.867 28.9326 124.542 29.1806C124.223 29.4285 123.837 29.6324 123.385 29.7922C122.933 29.9465 122.418 30.0236 121.84 30.0236Z" fill="#272727"/>
<g clip-path="url(#clip0_1630_16572)">
<path d="M31.1267 27.965C30.785 24.2946 27.4025 25.7446 27.4025 25.7446L22.3039 27.6348L21.8248 29.9801C21.8248 29.9801 28.566 26.3747 28.9625 31.1111C29.3784 36.0792 25.2605 37.5781 22.4128 38.452C20.6541 38.983 18.8352 39.2768 17.0021 39.3258L17.2869 38.9763L16.3768 37.2786C16.3588 37.245 16.3488 37.2076 16.3477 37.1693C16.3465 37.1311 16.3542 37.0931 16.3702 37.0585L17.1942 35.2673C17.2174 35.2169 17.2568 35.1762 17.3058 35.152L18.75 34.4388C18.7891 34.4195 18.8217 34.3889 18.8439 34.3508C18.8661 34.3126 18.8769 34.2687 18.8749 34.2244L18.775 32.0269C18.7729 31.9805 18.7569 31.9358 18.7291 31.8991C18.7014 31.8623 18.6632 31.8351 18.6199 31.8212L17.0521 31.3202C17.0187 31.3095 16.9879 31.2914 16.9622 31.2671C16.9364 31.2428 16.9162 31.213 16.903 31.1798L16.2387 29.5072C16.2168 29.4521 16.2155 29.3907 16.2349 29.3346L16.7806 27.7617C16.7955 27.7187 16.7973 27.672 16.7859 27.6279C16.7744 27.5838 16.7502 27.5442 16.7164 27.5144L14.9116 25.9247C14.8743 25.8918 14.8272 25.8725 14.778 25.8701C14.7288 25.8676 14.6801 25.882 14.6398 25.9111L13.3528 26.8375C13.3194 26.8616 13.2804 26.8764 13.2397 26.8805C13.1989 26.8847 13.1579 26.878 13.1204 26.8611L11.4101 26.0892C11.3778 26.0746 11.3491 26.0529 11.3261 26.0255C11.303 25.9981 11.2862 25.9658 11.277 25.931L10.8406 24.2943C10.8274 24.2448 10.7981 24.2013 10.7576 24.171C10.7171 24.1407 10.6677 24.1254 10.6176 24.1276L8.27107 24.2298C8.22593 24.2317 8.18245 24.2478 8.14649 24.2758C8.11052 24.3038 8.08379 24.3423 8.06988 24.3863L7.52603 26.1059C7.51504 26.1406 7.49652 26.1724 7.47184 26.1988C7.44717 26.2252 7.41699 26.2456 7.38354 26.2585L5.74933 26.8853C5.69696 26.9054 5.63933 26.906 5.58661 26.8868L3.90267 26.2756C3.90267 26.2756 2.70663 11.0695 3.10532 7.39907C3.504 3.72866 7.20592 3.49562 7.20592 3.49562C7.20592 3.49562 17.7854 3.21027 22.4127 3.49562C24.4663 3.62225 25.8035 4.82348 26.6045 5.91696C27.2364 6.78801 27.6048 7.82951 27.6641 8.91256L27.704 12.7648L30.2669 11.827C30.2669 11.827 30.137 6.71589 29.8559 5.44764C28.6072 -0.184157 21.9571 0.0582498 21.9571 0.0582498C21.9571 0.0582498 9.71124 -0.193358 5.0987 0.349549C2.03152 0.71056 0.767513 2.64184 0.271261 3.84974C0.065171 4.35821 -0.0263184 4.90764 0.00358401 5.45724C0.227133 9.96474 1.60502 37.5962 2.02318 42.3554C2.47881 47.5406 7.37687 47.9485 7.37687 47.9485C14.4392 48.298 22.6794 46.8198 26.9121 45.0937C28.3321 44.524 29.5306 43.4942 30.3243 42.1619C31.0899 40.8727 31.4851 39.389 31.4645 37.8807C31.4511 35.7812 31.3914 30.8075 31.1267 27.965ZM11.5224 1.54367L19.0146 1.44747C19.0538 1.44697 19.0916 1.4624 19.1196 1.49037C19.1476 1.51835 19.1637 1.55657 19.1642 1.59664L19.1683 1.92929C19.1685 1.94912 19.1649 1.96882 19.1577 1.98724C19.1505 2.00567 19.1399 2.02246 19.1263 2.03667C19.1128 2.05087 19.0966 2.06221 19.0788 2.07003C19.061 2.07786 19.0418 2.08201 19.0224 2.08226L11.5302 2.17848C11.5108 2.17873 11.4916 2.17507 11.4736 2.1677C11.4556 2.16034 11.4391 2.14942 11.4252 2.13557C11.4114 2.12172 11.4003 2.1052 11.3926 2.08696C11.385 2.06873 11.3809 2.04913 11.3807 2.02929L11.3766 1.69664C11.3764 1.6768 11.3799 1.65711 11.3871 1.63868C11.3943 1.62026 11.405 1.60346 11.4185 1.58926C11.4321 1.57505 11.4482 1.56372 11.4661 1.55589C11.4839 1.54807 11.503 1.54391 11.5224 1.54367ZM9.76803 37.3766C9.03678 37.3766 8.32195 37.1548 7.71394 36.7392C7.10593 36.3236 6.63205 35.733 6.35222 35.0419C6.07238 34.3508 5.99917 33.5903 6.14183 32.8567C6.28449 32.123 6.63662 31.4491 7.15369 30.9202C7.67076 30.3913 8.32955 30.0311 9.04675 29.8851C9.76395 29.7392 10.5073 29.8141 11.1829 30.1004C11.8585 30.3866 12.4359 30.8714 12.8422 31.4933C13.2485 32.1153 13.4653 32.8465 13.4653 33.5945C13.4653 34.0912 13.3697 34.583 13.1839 35.0419C12.9981 35.5008 12.7257 35.9177 12.3824 36.2689C12.0391 36.6201 11.6315 36.8987 11.1829 37.0887C10.7343 37.2788 10.2536 37.3766 9.76803 37.3766ZM18.038 44.6343C17.7069 44.6185 17.3876 44.5036 17.1197 44.3038C16.8518 44.1041 16.6472 43.8283 16.5311 43.5107C16.415 43.193 16.3927 42.8475 16.4668 42.517C16.5409 42.1865 16.7082 41.8855 16.948 41.6514C17.1878 41.4173 17.4896 41.2603 17.8158 41.2C18.142 41.1397 18.4783 41.1786 18.7831 41.3121C19.0878 41.4455 19.3476 41.6675 19.5301 41.9505C19.7127 42.2335 19.81 42.5652 19.81 42.9043C19.799 43.374 19.6063 43.82 19.274 44.1444C18.9417 44.4688 18.4972 44.645 18.038 44.6343Z" fill="#00AFF3"/>
<path d="M12.2559 19.8458V21.5046L12.4326 22.1916L12.6092 21.5046V19.8458H12.2559Z" fill="#A6A5B4"/>
<path d="M11.9922 18.7342V20.3498L12.2567 20.8385H12.6095L12.822 20.3498V18.7342H11.9922Z" fill="#5B5356"/>
<path d="M21.4277 19.3045V20.9633L21.6044 21.6504L21.7811 20.9633V19.3045H21.4277Z" fill="#A6A5B4"/>
<path d="M21.1641 18.193V19.8086L21.4286 20.2972H21.7814L21.9939 19.8086V18.193H21.1641Z" fill="#5B5356"/>
<path d="M16.7539 17.5003V19.0316L16.9306 19.6658L17.1073 19.0316V17.5003H16.7539Z" fill="#A6A5B4"/>
<path d="M16.5781 16.4178V17.9419L16.7545 18.4028H17.1072L17.2836 17.9419V16.4178H16.5781Z" fill="#5B5356"/>
<path d="M10.5373 8.12581C10.544 8.0645 10.5637 8.00543 10.5951 7.95276C10.6265 7.90009 10.6688 7.85508 10.7191 7.82091C11.053 7.60237 11.4431 7.49079 11.8394 7.50046C12.3291 7.50046 12.5877 7.6117 12.7197 7.70759C12.7595 7.73743 12.7925 7.7757 12.8165 7.81978C12.8404 7.86387 12.8548 7.91273 12.8587 7.96302C12.8867 8.27033 12.9482 9.10017 12.847 9.58334C12.7127 10.3772 12.6564 11.1829 12.679 11.9883C12.7 12.7398 13.0359 14.0497 13.0359 14.0497C13.0359 14.0497 13.5187 15.0804 13.1408 18.1081C13.1408 18.1081 13.0516 19.1058 12.3794 19.1058C12.0279 19.1058 11.8149 18.6629 11.6986 18.4528C11.6213 18.3106 11.5601 18.1599 11.5162 18.0035C11.3553 17.4183 10.8748 15.3364 11.1676 14.1572C11.2462 13.4873 11.2882 12.8134 11.2936 12.1387C11.2726 11.3872 10.8416 10.1395 10.6428 9.66936C10.5665 9.48856 10.4969 8.49267 10.5373 8.12581Z" fill="#00AFF3"/>
<path d="M19.6681 7.49001C19.6748 7.4287 19.6946 7.36963 19.726 7.31696C19.7574 7.26429 19.7997 7.21929 19.8499 7.18511C20.1838 6.96657 20.5739 6.85499 20.9702 6.86465C21.46 6.86465 21.7186 6.9759 21.8506 7.07179C21.8903 7.10163 21.9233 7.1399 21.9473 7.18398C21.9713 7.22807 21.9857 7.27692 21.9895 7.32722C22.0176 7.63454 22.079 8.46436 21.9778 8.94753C21.8435 9.74144 21.7873 10.5471 21.8099 11.3525C21.8309 12.104 22.1667 13.4139 22.1667 13.4139C22.1667 13.4139 22.6495 14.4446 22.2717 17.4723C22.2717 17.4723 22.1825 18.47 21.5103 18.47C21.1588 18.47 20.9457 18.0271 20.8295 17.817C20.7521 17.6748 20.6909 17.5241 20.6471 17.3677C20.4861 16.7825 20.0057 14.7006 20.2984 13.5214C20.377 12.8515 20.4191 12.1776 20.4244 11.5029C20.4034 10.7514 19.9725 9.50366 19.7736 9.03356C19.6974 8.85276 19.6277 7.85687 19.6681 7.49001Z" fill="#00AFF3"/>
<path d="M15.4262 8.2432C15.4316 8.194 15.4474 8.1466 15.4726 8.10433C15.4978 8.06206 15.5318 8.02594 15.5721 7.99852C15.8399 7.82319 16.1529 7.73367 16.4708 7.74143C16.7173 7.72156 16.9639 7.77957 17.1771 7.90761C17.209 7.93155 17.2355 7.96225 17.2547 7.99762C17.2739 8.03298 17.2855 8.07218 17.2886 8.11253C17.3371 8.54461 17.334 8.98114 17.2792 9.41244C17.1714 10.0494 17.1263 10.6957 17.1444 11.3418C17.194 11.9004 17.2898 12.4536 17.4307 12.9956C17.4307 12.9956 17.8181 13.8225 17.5149 16.2515C17.5149 16.2515 17.4434 17.0519 16.9041 17.0518C16.6221 17.0518 16.4512 16.6965 16.3579 16.528C16.2959 16.4139 16.2468 16.293 16.2116 16.1675C16.0824 15.698 15.697 14.0278 15.9319 13.0817C15.9949 12.5443 16.0286 12.0037 16.0329 11.4624C16.0161 10.8595 15.6703 9.85853 15.5109 9.48134C15.4307 9.07407 15.4022 8.65792 15.4262 8.2432Z" fill="#00AFF3"/>
</g>
<defs>
<clipPath id="clip0_1630_16572">
<rect width="31.466" height="48" fill="white"/>
</clipPath>
</defs>
</svg>
