<svg width="105" height="40" viewBox="0 0 105 40" fill="none" xmlns="http://www.w3.org/2000/svg">
<path d="M29.4797 14.5196H31.2291L33.8052 21.8826L36.3812 14.5196H38.1307L34.5077 24.5482H33.1026L29.4797 14.5196ZM28.536 14.5196H30.2786L30.5955 21.6966V24.5482H28.536V14.5196ZM37.3317 14.5196H39.0812V24.5482H37.0148V21.6966L37.3317 14.5196ZM40.4518 20.8977V20.753C40.4518 20.2066 40.5299 19.7038 40.686 19.2446C40.8421 18.7808 41.0694 18.379 41.3679 18.0392C41.6664 17.6994 42.0337 17.4354 42.4699 17.2472C42.9062 17.0543 43.4067 16.9579 43.9715 16.9579C44.5363 16.9579 45.0391 17.0543 45.4799 17.2472C45.9207 17.4354 46.2903 17.6994 46.5888 18.0392C46.8919 18.379 47.1215 18.7808 47.2776 19.2446C47.4337 19.7038 47.5118 20.2066 47.5118 20.753V20.8977C47.5118 21.4395 47.4337 21.9423 47.2776 22.4061C47.1215 22.8653 46.8919 23.267 46.5888 23.6114C46.2903 23.9512 45.923 24.2152 45.4868 24.4035C45.0505 24.5918 44.55 24.6859 43.9852 24.6859C43.4204 24.6859 42.9176 24.5918 42.4768 24.4035C42.0406 24.2152 41.671 23.9512 41.3679 23.6114C41.0694 23.267 40.8421 22.8653 40.686 22.4061C40.5299 21.9423 40.4518 21.4395 40.4518 20.8977ZM42.4355 20.753V20.8977C42.4355 21.2099 42.463 21.5015 42.5181 21.7724C42.5732 22.0433 42.6605 22.2821 42.7799 22.4887C42.9039 22.6908 43.0646 22.8492 43.262 22.964C43.4595 23.0788 43.7005 23.1362 43.9852 23.1362C44.2607 23.1362 44.4972 23.0788 44.6947 22.964C44.8921 22.8492 45.0505 22.6908 45.1699 22.4887C45.2893 22.2821 45.3766 22.0433 45.4317 21.7724C45.4914 21.5015 45.5212 21.2099 45.5212 20.8977V20.753C45.5212 20.45 45.4914 20.1653 45.4317 19.8989C45.3766 19.628 45.287 19.3892 45.163 19.1826C45.0436 18.9714 44.8852 18.8061 44.6878 18.6867C44.4903 18.5673 44.2516 18.5076 43.9715 18.5076C43.6914 18.5076 43.4526 18.5673 43.2551 18.6867C43.0623 18.8061 42.9039 18.9714 42.7799 19.1826C42.6605 19.3892 42.5732 19.628 42.5181 19.8989C42.463 20.1653 42.4355 20.45 42.4355 20.753ZM48.7309 13.9686H50.7146V22.84L50.5148 24.5482H48.7309V13.9686ZM55.4327 20.7461V20.8908C55.4327 21.4464 55.373 21.9561 55.2536 22.4198C55.1388 22.8836 54.9597 23.2854 54.7163 23.6252C54.473 23.9604 54.1699 24.2221 53.8072 24.4104C53.449 24.5941 53.0265 24.6859 52.5398 24.6859C52.0852 24.6859 51.6903 24.5941 51.3551 24.4104C51.0245 24.2267 50.7467 23.9673 50.5217 23.6321C50.2967 23.2969 50.1153 22.9043 49.9776 22.4543C49.8398 22.0043 49.7365 21.513 49.6676 20.9803V20.6635C49.7365 20.1308 49.8398 19.6395 49.9776 19.1895C50.1153 18.7395 50.2967 18.3469 50.5217 18.0117C50.7467 17.6765 51.0245 17.417 51.3551 17.2334C51.6857 17.0497 52.076 16.9579 52.526 16.9579C53.0174 16.9579 53.4444 17.052 53.8072 17.2403C54.1745 17.4239 54.4776 17.6857 54.7163 18.0255C54.9597 18.3607 55.1388 18.7602 55.2536 19.2239C55.373 19.6831 55.4327 20.1905 55.4327 20.7461ZM53.449 20.8908V20.7461C53.449 20.4431 53.426 20.1584 53.3801 19.892C53.3388 19.6211 53.2653 19.3846 53.1597 19.1826C53.0541 18.976 52.9094 18.813 52.7258 18.6936C52.5467 18.5742 52.3148 18.5145 52.0301 18.5145C51.7592 18.5145 51.5296 18.5604 51.3413 18.6523C51.1531 18.7441 50.997 18.8727 50.873 19.038C50.7536 19.2033 50.664 19.4007 50.6044 19.6303C50.5447 19.8553 50.5079 20.1033 50.4941 20.3742V21.2765C50.5079 21.6392 50.5676 21.9607 50.6732 22.2408C50.7834 22.5163 50.9487 22.7344 51.1691 22.8951C51.3941 23.0512 51.6857 23.1293 52.0439 23.1293C52.324 23.1293 52.5559 23.0742 52.7396 22.964C52.9232 22.8538 53.0656 22.6977 53.1666 22.4956C53.2722 22.2936 53.3457 22.0571 53.387 21.7862C53.4283 21.5107 53.449 21.2122 53.449 20.8908ZM58.7594 17.0956V24.5482H56.7689V17.0956H58.7594ZM56.6449 15.1533C56.6449 14.864 56.7459 14.6252 56.948 14.437C57.15 14.2487 57.4209 14.1546 57.7607 14.1546C58.0959 14.1546 58.3645 14.2487 58.5666 14.437C58.7732 14.6252 58.8765 14.864 58.8765 15.1533C58.8765 15.4426 58.7732 15.6813 58.5666 15.8696C58.3645 16.0579 58.0959 16.152 57.7607 16.152C57.4209 16.152 57.15 16.0579 56.948 15.8696C56.7459 15.6813 56.6449 15.4426 56.6449 15.1533ZM68.4712 19.3066V23.2808C68.315 23.4691 68.074 23.6734 67.7479 23.8938C67.4219 24.1096 67.0018 24.2956 66.4875 24.4517C65.9732 24.6079 65.351 24.6859 64.6209 24.6859C63.9735 24.6859 63.3834 24.5803 62.8508 24.3691C62.3181 24.1533 61.8589 23.8387 61.4732 23.4255C61.0921 23.0122 60.7982 22.5071 60.5916 21.9102C60.3849 21.3086 60.2816 20.6221 60.2816 19.8507V19.2239C60.2816 18.4525 60.3804 17.766 60.5778 17.1645C60.7798 16.563 61.0668 16.0556 61.4388 15.6423C61.8107 15.229 62.2538 14.9145 62.7681 14.6987C63.2824 14.4829 63.8541 14.375 64.4831 14.375C65.3556 14.375 66.0719 14.5173 66.6321 14.802C67.1923 15.0821 67.6194 15.4724 67.9132 15.9729C68.2117 16.4688 68.3954 17.0382 68.4643 17.6811H66.4599C66.4094 17.3413 66.313 17.0451 66.1706 16.7926C66.0283 16.54 65.824 16.3426 65.5576 16.2002C65.2959 16.0579 64.9561 15.9867 64.5383 15.9867C64.1939 15.9867 63.8862 16.0579 63.6153 16.2002C63.349 16.338 63.124 16.5423 62.9403 16.8132C62.7566 17.0841 62.6166 17.4193 62.5201 17.8188C62.4237 18.2183 62.3755 18.6821 62.3755 19.2102V19.8507C62.3755 20.3742 62.426 20.838 62.527 21.242C62.6281 21.6415 62.7773 21.979 62.9747 22.2545C63.1768 22.5255 63.4247 22.7298 63.7186 22.8675C64.0125 23.0053 64.3546 23.0742 64.7449 23.0742C65.0709 23.0742 65.3418 23.0466 65.5576 22.9915C65.778 22.9364 65.9548 22.8698 66.088 22.7918C66.2257 22.7091 66.3314 22.6311 66.4048 22.5576V20.7806H64.5176V19.3066H68.4712ZM74.0364 22.8675V19.5477C74.0364 19.3089 73.9974 19.1045 73.9194 18.9346C73.8413 18.7602 73.7196 18.6247 73.5543 18.5283C73.3936 18.4318 73.1847 18.3836 72.9275 18.3836C72.7071 18.3836 72.5165 18.4227 72.3558 18.5007C72.1951 18.5742 72.0711 18.6821 71.9839 18.8244C71.8967 18.9622 71.853 19.1252 71.853 19.3135H69.8694C69.8694 18.9966 69.9428 18.6959 70.0898 18.4112C70.2367 18.1265 70.4502 17.8762 70.7303 17.6604C71.0104 17.44 71.3433 17.2678 71.7291 17.1438C72.1194 17.0199 72.5556 16.9579 73.0377 16.9579C73.6163 16.9579 74.1306 17.0543 74.5806 17.2472C75.0306 17.44 75.3841 17.7293 75.6413 18.115C75.903 18.5007 76.0339 18.9829 76.0339 19.5614V22.7505C76.0339 23.1591 76.0591 23.4943 76.1097 23.7561C76.1602 24.0132 76.2336 24.2382 76.3301 24.4311V24.5482H74.3257C74.2293 24.3461 74.1558 24.0936 74.1053 23.7905C74.0594 23.4829 74.0364 23.1752 74.0364 22.8675ZM74.2982 20.0091L74.312 21.1318H73.203C72.9413 21.1318 72.714 21.1617 72.5211 21.2214C72.3283 21.2811 72.1699 21.366 72.0459 21.4762C71.9219 21.5818 71.8301 21.7058 71.7704 21.8482C71.7153 21.9905 71.6877 22.1466 71.6877 22.3165C71.6877 22.4864 71.7268 22.6403 71.8048 22.778C71.8829 22.9112 71.9954 23.0168 72.1423 23.0948C72.2893 23.1683 72.4614 23.205 72.6589 23.205C72.9574 23.205 73.2168 23.1454 73.4372 23.026C73.6576 22.9066 73.8275 22.7596 73.9469 22.5852C74.0709 22.4107 74.1352 22.2454 74.1398 22.0892L74.6632 22.9295C74.5898 23.1178 74.4887 23.313 74.3602 23.515C74.2362 23.717 74.0778 23.9076 73.8849 24.0867C73.6921 24.2612 73.4602 24.4058 73.1893 24.5206C72.9183 24.6308 72.5969 24.6859 72.225 24.6859C71.752 24.6859 71.3227 24.5918 70.937 24.4035C70.5558 24.2107 70.2528 23.9466 70.0278 23.6114C69.8074 23.2716 69.6972 22.8859 69.6972 22.4543C69.6972 22.064 69.7706 21.7173 69.9176 21.4142C70.0645 21.1112 70.2803 20.8563 70.565 20.6497C70.8543 20.4385 71.2148 20.2801 71.6464 20.1744C72.078 20.0642 72.5785 20.0091 73.1479 20.0091H74.2982ZM79.5466 18.7211V24.5482H77.563V17.0956H79.4295L79.5466 18.7211ZM81.792 17.0474L81.7576 18.8864C81.6612 18.8727 81.5441 18.8612 81.4063 18.852C81.2732 18.8382 81.1515 18.8313 81.0413 18.8313C80.7612 18.8313 80.5178 18.8681 80.3112 18.9415C80.1091 19.0104 79.9392 19.1137 79.8015 19.2515C79.6683 19.3892 79.5673 19.5568 79.4984 19.7543C79.4341 19.9517 79.3974 20.1767 79.3882 20.4293L78.9887 20.3053C78.9887 19.8232 79.0369 19.3801 79.1334 18.976C79.2298 18.5673 79.3699 18.2114 79.5535 17.9084C79.7418 17.6053 79.9714 17.3711 80.2423 17.2058C80.5132 17.0405 80.8232 16.9579 81.1721 16.9579C81.2823 16.9579 81.3948 16.9671 81.5096 16.9854C81.6244 16.9992 81.7186 17.0199 81.792 17.0474ZM86.517 22.8675V19.5477C86.517 19.3089 86.478 19.1045 86.3999 18.9346C86.3219 18.7602 86.2002 18.6247 86.0349 18.5283C85.8742 18.4318 85.6652 18.3836 85.4081 18.3836C85.1877 18.3836 84.9971 18.4227 84.8364 18.5007C84.6757 18.5742 84.5517 18.6821 84.4645 18.8244C84.3772 18.9622 84.3336 19.1252 84.3336 19.3135H82.3499C82.3499 18.9966 82.4234 18.6959 82.5704 18.4112C82.7173 18.1265 82.9308 17.8762 83.2109 17.6604C83.491 17.44 83.8239 17.2678 84.2096 17.1438C84.5999 17.0199 85.0362 16.9579 85.5183 16.9579C86.0969 16.9579 86.6112 17.0543 87.0612 17.2472C87.5112 17.44 87.8647 17.7293 88.1219 18.115C88.3836 18.5007 88.5145 18.9829 88.5145 19.5614V22.7505C88.5145 23.1591 88.5397 23.4943 88.5902 23.7561C88.6408 24.0132 88.7142 24.2382 88.8106 24.4311V24.5482H86.8063C86.7099 24.3461 86.6364 24.0936 86.5859 23.7905C86.54 23.4829 86.517 23.1752 86.517 22.8675ZM86.7788 20.0091L86.7925 21.1318H85.6836C85.4219 21.1318 85.1946 21.1617 85.0017 21.2214C84.8089 21.2811 84.6505 21.366 84.5265 21.4762C84.4025 21.5818 84.3107 21.7058 84.251 21.8482C84.1959 21.9905 84.1683 22.1466 84.1683 22.3165C84.1683 22.4864 84.2073 22.6403 84.2854 22.778C84.3635 22.9112 84.476 23.0168 84.6229 23.0948C84.7698 23.1683 84.942 23.205 85.1395 23.205C85.438 23.205 85.6974 23.1454 85.9178 23.026C86.1382 22.9066 86.3081 22.7596 86.4275 22.5852C86.5515 22.4107 86.6158 22.2454 86.6203 22.0892L87.1438 22.9295C87.0703 23.1178 86.9693 23.313 86.8408 23.515C86.7168 23.717 86.5584 23.9076 86.3655 24.0867C86.1726 24.2612 85.9408 24.4058 85.6698 24.5206C85.3989 24.6308 85.0775 24.6859 84.7056 24.6859C84.2326 24.6859 83.8033 24.5918 83.4175 24.4035C83.0364 24.2107 82.7334 23.9466 82.5084 23.6114C82.288 23.2716 82.1778 22.8859 82.1778 22.4543C82.1778 22.064 82.2512 21.7173 82.3982 21.4142C82.5451 21.1112 82.7609 20.8563 83.0456 20.6497C83.3349 20.4385 83.6954 20.2801 84.127 20.1744C84.5586 20.0642 85.0591 20.0091 85.6285 20.0091H86.7788ZM94.7617 17.0956H96.5594V24.3002C96.5594 24.9798 96.4078 25.5561 96.1048 26.029C95.8063 26.5066 95.3884 26.867 94.8512 27.1104C94.314 27.3584 93.6895 27.4823 92.9777 27.4823C92.6655 27.4823 92.3349 27.441 91.9859 27.3584C91.6415 27.2757 91.3109 27.1471 90.9941 26.9726C90.6818 26.7982 90.4201 26.5777 90.2089 26.3114L91.0836 25.1405C91.3132 25.4068 91.5795 25.6135 91.8826 25.7604C92.1856 25.9119 92.5208 25.9877 92.8882 25.9877C93.2464 25.9877 93.5494 25.9211 93.7974 25.788C94.0453 25.6594 94.2359 25.4688 94.3691 25.2163C94.5022 24.9683 94.5688 24.6675 94.5688 24.314V18.8176L94.7617 17.0956ZM89.7474 20.9114V20.7668C89.7474 20.1974 89.8163 19.6808 89.954 19.217C90.0964 18.7487 90.2961 18.3469 90.5532 18.0117C90.815 17.6765 91.1318 17.417 91.5038 17.2334C91.8757 17.0497 92.2958 16.9579 92.7642 16.9579C93.2601 16.9579 93.6757 17.0497 94.0109 17.2334C94.3461 17.417 94.6216 17.6788 94.8374 18.0186C95.0532 18.3538 95.2208 18.751 95.3402 19.2102C95.4642 19.6647 95.5606 20.163 95.6295 20.7048V21.0216C95.5606 21.5405 95.4573 22.0227 95.3196 22.4681C95.1818 22.9135 95.0004 23.3038 94.7754 23.639C94.5504 23.9696 94.2703 24.2267 93.9351 24.4104C93.6045 24.5941 93.2096 24.6859 92.7504 24.6859C92.2913 24.6859 91.8757 24.5918 91.5038 24.4035C91.1364 24.2152 90.8219 23.9512 90.5601 23.6114C90.2984 23.2716 90.0964 22.8721 89.954 22.413C89.8163 21.9538 89.7474 21.4533 89.7474 20.9114ZM91.731 20.7668V20.9114C91.731 21.2191 91.7609 21.5061 91.8206 21.7724C91.8803 22.0387 91.9721 22.2752 92.0961 22.4818C92.2247 22.6839 92.3831 22.8423 92.5714 22.9571C92.7642 23.0673 92.9915 23.1224 93.2532 23.1224C93.616 23.1224 93.9122 23.0466 94.1418 22.8951C94.3713 22.739 94.5435 22.5255 94.6583 22.2545C94.7731 21.9836 94.8397 21.6714 94.8581 21.3178V20.4155C94.8489 20.1262 94.8099 19.8668 94.741 19.6372C94.6721 19.403 94.5757 19.2033 94.4517 19.038C94.3277 18.8727 94.167 18.7441 93.9696 18.6523C93.7721 18.5604 93.5379 18.5145 93.267 18.5145C93.0053 18.5145 92.778 18.5742 92.5851 18.6936C92.3969 18.8084 92.2384 18.9668 92.1099 19.1688C91.9859 19.3709 91.8918 19.6096 91.8275 19.8852C91.7632 20.1561 91.731 20.45 91.731 20.7668ZM101.532 24.6859C100.954 24.6859 100.435 24.5941 99.9757 24.4104C99.5165 24.2221 99.1262 23.9627 98.8048 23.6321C98.4879 23.3015 98.2446 22.9181 98.0747 22.4818C97.9048 22.041 97.8198 21.5727 97.8198 21.0767V20.8012C97.8198 20.2364 97.9002 19.7199 98.0609 19.2515C98.2216 18.7831 98.4512 18.3767 98.7497 18.0324C99.0527 17.688 99.4201 17.4239 99.8517 17.2403C100.283 17.052 100.77 16.9579 101.312 16.9579C101.84 16.9579 102.308 17.0451 102.717 17.2196C103.126 17.3941 103.468 17.642 103.743 17.9635C104.023 18.2849 104.235 18.6706 104.377 19.1206C104.519 19.566 104.59 20.0619 104.59 20.6084V21.4349H98.667V20.1125H102.641V19.9609C102.641 19.6854 102.591 19.4397 102.49 19.2239C102.393 19.0035 102.246 18.829 102.049 18.7005C101.851 18.5719 101.599 18.5076 101.291 18.5076C101.029 18.5076 100.804 18.565 100.616 18.6798C100.428 18.7946 100.274 18.9553 100.155 19.1619C100.04 19.3686 99.9527 19.6119 99.893 19.892C99.8379 20.1676 99.8104 20.4706 99.8104 20.8012V21.0767C99.8104 21.3752 99.8517 21.6507 99.9343 21.9033C100.022 22.1558 100.143 22.3739 100.299 22.5576C100.46 22.7413 100.653 22.8836 100.878 22.9846C101.108 23.0857 101.367 23.1362 101.656 23.1362C102.014 23.1362 102.347 23.0673 102.655 22.9295C102.967 22.7872 103.236 22.5737 103.461 22.289L104.425 23.3359C104.269 23.5609 104.056 23.7767 103.785 23.9834C103.518 24.19 103.197 24.3599 102.82 24.4931C102.444 24.6216 102.014 24.6859 101.532 24.6859Z" fill="#272727"/>
<g clip-path="url(#clip0_1630_16590)">
<path d="M25.9388 23.3038C25.654 20.2451 22.8353 21.4534 22.8353 21.4534L18.5864 23.0286L18.1871 24.983C18.1871 24.983 23.8048 21.9785 24.1352 25.9255C24.4819 30.0656 21.0502 31.3146 18.6771 32.0429C17.2115 32.4854 15.6958 32.7302 14.1682 32.7711L14.4055 32.4798L13.6471 31.0651C13.6321 31.0371 13.6238 31.0059 13.6228 30.974C13.6219 30.9422 13.6283 30.9105 13.6416 30.8816L14.3283 29.389C14.3476 29.347 14.3804 29.3131 14.4212 29.2929L15.6248 28.6986C15.6573 28.6825 15.6846 28.657 15.7031 28.6252C15.7216 28.5934 15.7305 28.5568 15.7289 28.5199L15.6456 26.6887C15.6438 26.65 15.6305 26.6128 15.6074 26.5821C15.5843 26.5515 15.5525 26.5288 15.5163 26.5173L14.2099 26.0997C14.182 26.0908 14.1564 26.0757 14.1349 26.0555C14.1134 26.0353 14.0966 26.0104 14.0856 25.9828L13.532 24.5889C13.5138 24.543 13.5127 24.4918 13.5289 24.4451L13.9836 23.1343C13.996 23.0985 13.9976 23.0596 13.988 23.0228C13.9785 22.986 13.9583 22.9531 13.9301 22.9282L12.4261 21.6035C12.395 21.576 12.3558 21.56 12.3148 21.558C12.2737 21.5559 12.2332 21.5679 12.1996 21.5921L11.1271 22.3642C11.0992 22.3842 11.0667 22.3966 11.0328 22.4C10.9989 22.4035 10.9646 22.3979 10.9334 22.3838L9.50819 21.7406C9.48126 21.7284 9.45732 21.7103 9.43813 21.6875C9.41893 21.6647 9.40495 21.6378 9.39721 21.6087L9.03356 20.2448C9.02256 20.2036 8.99819 20.1673 8.96443 20.1421C8.93067 20.1169 8.88953 20.1041 8.84775 20.1059L6.89228 20.1911C6.85466 20.1927 6.81843 20.2061 6.78846 20.2294C6.75849 20.2527 6.73622 20.2848 6.72463 20.3215L6.27141 21.7545C6.26225 21.7834 6.24682 21.8099 6.22626 21.8319C6.2057 21.8539 6.18054 21.8709 6.15267 21.8816L4.79082 22.404C4.74717 22.4208 4.69915 22.4212 4.65522 22.4053L3.25192 21.8959C3.25192 21.8959 2.25522 9.22415 2.58746 6.16547C2.9197 3.10679 6.00465 2.91259 6.00465 2.91259C6.00465 2.91259 14.8209 2.6748 18.677 2.91259C20.3884 3.01812 21.5028 4.01914 22.1702 4.93038C22.6969 5.65626 23.0039 6.52417 23.0533 7.42671L23.0865 10.6369L25.2223 9.85537C25.2223 9.85537 25.1141 5.59615 24.8797 4.53928C23.8392 -0.153886 18.2974 0.0481193 18.2974 0.0481193C18.2974 0.0481193 8.09243 -0.161554 4.24862 0.290868C1.69262 0.591711 0.639273 2.20111 0.225727 3.20769C0.0539841 3.63142 -0.0222576 4.08928 0.00266119 4.54728C0.188953 8.30353 1.3372 31.3297 1.68567 35.2958C2.06537 39.6167 6.14711 39.9566 6.14711 39.9566C12.0324 40.2479 18.8993 39.0161 22.4266 37.5776C23.6099 37.1029 24.6086 36.2448 25.2701 35.1345C25.9081 34.0602 26.2374 32.8237 26.2203 31.5668C26.2091 29.8172 26.1593 25.6725 25.9388 23.3038ZM9.60177 1.28597L15.8453 1.2058C15.878 1.20538 15.9094 1.21824 15.9328 1.24156C15.9562 1.26487 15.9695 1.29672 15.9699 1.33011L15.9733 1.60732C15.9735 1.62385 15.9706 1.64026 15.9646 1.65561C15.9586 1.67097 15.9497 1.68496 15.9384 1.6968C15.9271 1.70864 15.9136 1.71809 15.8988 1.72461C15.8839 1.73112 15.868 1.73459 15.8518 1.73479L9.60827 1.81497C9.5921 1.81518 9.57606 1.81213 9.56105 1.806C9.54604 1.79986 9.53236 1.79076 9.52078 1.77922C9.50921 1.76767 9.49998 1.75391 9.4936 1.73871C9.48723 1.72352 9.48385 1.70719 9.48365 1.69065L9.48025 1.41344C9.48005 1.39691 9.48303 1.3805 9.48903 1.36515C9.49502 1.34979 9.50392 1.3358 9.5152 1.32396C9.52648 1.31212 9.53994 1.30267 9.55479 1.29615C9.56964 1.28964 9.58561 1.28617 9.60177 1.28597ZM8.13976 31.1468C7.53038 31.1468 6.93469 30.9619 6.42801 30.6156C5.92133 30.2693 5.52642 29.777 5.29323 29.2011C5.06003 28.6252 4.99902 27.9915 5.1179 27.3802C5.23679 26.7688 5.53023 26.2072 5.96113 25.7664C6.39202 25.3256 6.94102 25.0255 7.53869 24.9039C8.13636 24.7823 8.75586 24.8447 9.31885 25.0832C9.88184 25.3218 10.363 25.7257 10.7016 26.244C11.0401 26.7623 11.2208 27.3717 11.2208 27.995C11.2208 28.4089 11.1411 28.8188 10.9863 29.2012C10.8315 29.5835 10.6045 29.931 10.3184 30.2236C10.0323 30.5163 9.69265 30.7485 9.31884 30.9069C8.94502 31.0652 8.54437 31.1468 8.13976 31.1468ZM15.0315 37.1948C14.7555 37.1816 14.4894 37.0859 14.2662 36.9194C14.043 36.753 13.8724 36.5232 13.7757 36.2585C13.679 35.9938 13.6603 35.7059 13.7221 35.4304C13.7839 35.155 13.9233 34.9042 14.1231 34.7091C14.323 34.514 14.5744 34.3832 14.8462 34.3329C15.1181 34.2826 15.3984 34.3151 15.6523 34.4263C15.9063 34.5375 16.1228 34.7225 16.2749 34.9583C16.427 35.1942 16.5081 35.4706 16.5081 35.7531C16.499 36.1445 16.3383 36.5162 16.0615 36.7866C15.7846 37.0569 15.4141 37.2037 15.0315 37.1948Z" fill="#00AFF3"/>
<path d="M10.2168 16.5378V17.9201L10.364 18.4926L10.5113 17.9201V16.5378H10.2168Z" fill="#A6A5B4"/>
<path d="M9.99609 15.6115V16.9578L10.2166 17.365H10.5105L10.6876 16.9578V15.6115H9.99609Z" fill="#5B5356"/>
<path d="M17.8574 16.0867V17.4691L18.0047 18.0416L18.1519 17.4691V16.0867H17.8574Z" fill="#A6A5B4"/>
<path d="M17.6367 15.1604V16.5067L17.8572 16.9139H18.1511L18.3282 16.5067V15.1604H17.6367Z" fill="#5B5356"/>
<path d="M13.9609 14.5832V15.8592L14.1082 16.3877L14.2554 15.8592V14.5832H13.9609Z" fill="#A6A5B4"/>
<path d="M13.8145 13.6811V14.9511L13.9614 15.3353H14.2554L14.4024 14.9511V13.6811H13.8145Z" fill="#5B5356"/>
<path d="M8.78137 6.77112C8.78697 6.72003 8.80343 6.67081 8.8296 6.62691C8.85578 6.58302 8.89102 6.54552 8.93287 6.51704C9.21114 6.33492 9.53622 6.24194 9.86648 6.24999C10.2746 6.24999 10.4901 6.3427 10.6001 6.42261C10.6332 6.44747 10.6607 6.47936 10.6807 6.5161C10.7007 6.55284 10.7127 6.59355 10.7159 6.63547C10.7393 6.89155 10.7905 7.58308 10.7061 7.98573C10.5942 8.64731 10.5473 9.3187 10.5662 9.98984C10.5837 10.6161 10.8636 11.7077 10.8636 11.7077C10.8636 11.7077 11.2659 12.5666 10.951 15.0897C10.951 15.0897 10.8767 15.9211 10.3165 15.9211C10.0236 15.9211 9.84605 15.552 9.74918 15.3769C9.68474 15.2585 9.63374 15.1329 9.59719 15.0026C9.46304 14.5149 9.06269 12.7799 9.30666 11.7973C9.37215 11.239 9.40719 10.6775 9.41163 10.1152C9.39413 9.48893 9.03502 8.44917 8.86929 8.05741C8.80574 7.90675 8.74771 7.07684 8.78137 6.77112Z" fill="#00AFF3"/>
<path d="M16.3907 6.24128C16.3963 6.19018 16.4128 6.14097 16.439 6.09707C16.4652 6.05318 16.5004 6.01568 16.5422 5.98719C16.8205 5.80508 17.1456 5.71209 17.4758 5.72015C17.884 5.72015 18.0995 5.81285 18.2095 5.89276C18.2426 5.91763 18.2701 5.94952 18.2901 5.98625C18.3101 6.02299 18.3221 6.06371 18.3253 6.10562C18.3486 6.36172 18.3999 7.05324 18.3155 7.45588C18.2036 8.11747 18.1567 8.78885 18.1756 9.46C18.1931 10.0863 18.4729 11.1778 18.4729 11.1778C18.4729 11.1778 18.8753 12.0367 18.5604 14.5598C18.5604 14.5598 18.4861 15.3912 17.9259 15.3912C17.633 15.3912 17.4554 15.0222 17.3585 14.8471C17.2941 14.7286 17.2431 14.603 17.2065 14.4727C17.0724 13.985 16.6721 12.2501 16.916 11.2674C16.9815 10.7092 17.0166 10.1476 17.021 9.58539C17.0035 8.95909 16.6444 7.91932 16.4786 7.52757C16.4151 7.3769 16.3571 6.54699 16.3907 6.24128Z" fill="#00AFF3"/>
<path d="M12.8545 6.86896C12.859 6.82796 12.8722 6.78846 12.8932 6.75323C12.9142 6.71801 12.9425 6.68791 12.9761 6.66506C13.1993 6.51895 13.4601 6.44435 13.7251 6.45081C13.9305 6.43426 14.1359 6.48259 14.3136 6.5893C14.3402 6.60925 14.3622 6.63483 14.3783 6.6643C14.3943 6.69377 14.4039 6.72644 14.4065 6.76006C14.447 7.12013 14.4443 7.4839 14.3987 7.84332C14.3089 8.37409 14.2713 8.91272 14.2864 9.45115C14.3277 9.9166 14.4075 10.3776 14.525 10.8293C14.525 10.8293 14.8478 11.5184 14.5952 13.5425C14.5952 13.5425 14.5355 14.2095 14.0861 14.2095C13.8511 14.2095 13.7087 13.9134 13.631 13.7729C13.5793 13.6779 13.5383 13.5771 13.509 13.4725C13.4014 13.0813 13.0802 11.6894 13.2759 10.9011C13.3284 10.4532 13.3566 10.0027 13.3601 9.55165C13.3461 9.04919 13.058 8.21507 12.9251 7.90074C12.8583 7.56135 12.8345 7.21456 12.8545 6.86896Z" fill="#00AFF3"/>
</g>
<defs>
<clipPath id="clip0_1630_16590">
<rect width="26.2219" height="40" fill="white"/>
</clipPath>
</defs>
</svg>
